<?xml version="1.0" encoding="UTF-8"?>
<svg id="katman_2" data-name="katman 2" xmlns="http://www.w3.org/2000/svg" viewBox="0 0 3230.55 1996.65">
  <defs>
    <style>
      .cls-1 {
        fill: #e2201a;
      }

      .cls-1, .cls-2, .cls-3 {
        fill-rule: evenodd;
      }

      .cls-2 {
        fill: #268b4c;
      }

      .cls-3 {
        fill: #00a3df;
      }
    </style>
  </defs>
  <g id="katman_1" data-name="katman 1">
    <g>
      <path class="cls-2" d="M3106.47,1608.8c0,41.2-8.23,206,115.37,288.4,41.19,24.71-65.92,107.12-271.92,98.87,0,0-749.83-24.71-1203.03-585.04,0,0,848.71,453.2,1351.35,189.52,0,0,8.23,0,8.23,8.23h0Z"/>
      <path class="cls-2" d="M1969.36,1172.08v197.74h-214.24v-222.46c0-362.56,164.8-552.08,453.2-552.08,107.13,0,181.28,32.97,181.28,32.97v741.58h-214.23v-197.74h-206ZM2084.72,793.04c-82.4,32.97-115.36,115.37-115.36,214.24h206c0-82.4-8.24-156.56,0-238.96-32.96,0-65.92,8.23-90.64,24.71h0Z"/>
      <polygon class="cls-2" points="659.2 628.24 889.93 628.24 889.93 1386.32 659.2 1386.32 659.2 628.24 659.2 628.24"/>
      <path class="cls-2" d="M1689.2,611.76h-230.72l8.25,156.56c-98.88-98.88-247.19-164.8-461.44-156.56v758.06h222.48v-502.62s238.96,24.72,238.96,387.27v115.35h222.48v-758.06h0Z"/>
      <path class="cls-2" d="M3131.19,1369.83l-156.55-329.58s49.43-8.24,90.65-115.36c0,0,82.39-197.76-115.37-296.64,0,0-115.36-49.44-461.44-8.24v749.82h222.47v-585.02s131.85-16.48,164.8,49.43c0,0,57.68,107.13-107.12,140.08l-41.2,8.23,173.04,387.27h230.71Z"/>
      <path class="cls-1" d="M1755.11,834.24s49.45-346.07,510.88-337.83c0,0,32.95-98.88-164.8-107.12-74.15,0,8.24-131.84,74.16-148.32,65.92-16.48-395.51-98.89-420.24,593.27h0Z"/>
      <path class="cls-3" d="M222.48,381.04s-123.59,16.48-16.47-197.76c24.71-49.43-41.21-98.88-98.89-107.12-49.44,0,65.92-90.65,271.92-74.16,0,0,502.63,16.48,947.6,576.8,0,0-387.28-362.56-1104.16-197.76h0Z"/>
      <path class="cls-2" d="M247.19,982.56c16.5,0,24.73,8.25,49.45,8.25,57.68,0,107.12-41.21,107.12-98.88s-49.44-98.88-107.12-98.88h-74.16v576.79H0v-758.06h395.52c156.56,0,230.71,140.09,230.71,255.44,0,140.08-140.07,280.16-329.59,280.16v-8.25l-49.45-156.56h0Z"/>
    </g>
  </g>
</svg>